<?xml version="1.0" encoding="UTF-8" standalone="no"?>
<!DOCTYPE svg PUBLIC "-//W3C//DTD SVG 1.1//EN" "http://www.w3.org/Graphics/SVG/1.1/DTD/svg11.dtd">
<svg version="1.1" xmlns="http://www.w3.org/2000/svg" xmlns:xlink="http://www.w3.org/1999/xlink" preserveAspectRatio="xMidYMid meet" viewBox="0 0 999 608" width="999" height="608"><defs><path d="M999 0C999 0 999 0 999 0C999 367.2 999 571.2 999 612C999 612 999 612 999 612C840 612 751.67 612 734 612C734 612 734 612 734 612C734 244.8 734 40.8 734 0C734 0 734 0 734 0C893 0 981.33 0 999 0Z" id="aBr56E6Oc"></path><path d="M742 0.51C742 0.51 742 0.51 742 0.51C742 367.1 742 570.76 742 611.49C742 611.49 742 611.49 742 611.49C449.2 611.49 286.53 611.49 254 611.49C254 611.49 254 611.49 254 611.49C254 244.9 254 41.24 254 0.51C254 0.51 254 0.51 254 0.51C546.8 0.51 709.47 0.51 742 0.51Z" id="aINjJCdQ4"></path><path d="M588 135.35L588 326.55L441.9 326.55C441.9 229.57 441.9 175.69 441.9 164.92C441.9 148.59 454.46 135.35 469.97 135.35C469.97 135.35 469.97 135.35 469.97 135.35C469.97 135.35 509.31 135.35 588 135.35Z" id="aanTRgmtP"></path><path d="M406.66 295.68C406.66 295.68 382.84 320.77 382.84 320.77C382.84 320.77 285.84 381.72 321.58 403.23C321.58 403.23 401.56 451.62 401.56 451.62C401.56 451.62 401.56 505.4 420.28 503.61C420.28 503.61 421.98 440.87 421.98 440.87C417.67 437.4 396.11 420.08 357.31 388.89L421.98 349.45C435.25 363.43 442.63 371.2 444.1 372.75C444.1 372.75 462.82 301.05 452.61 279.54C443.42 282.77 425.38 277.75 406.66 295.68Z" id="aaZc4QUHf"></path><path d="M615.19 611.49C439.62 611.49 342.08 611.49 322.57 611.49C340.03 537.33 376.93 494.85 403.08 472.98C410.2 466.97 417.77 461.58 425.73 456.87C429.82 454.48 432.19 453.42 432.19 453.42C432.29 452.75 432.82 449.42 433.77 443.42L435.59 431.91L553.01 460.59L552.13 470.74L551.31 480.31L615.19 611.49Z" id="h2Za41IC6i"></path><path d="M522.38 137.93C494.18 137.93 471.33 162.01 471.33 191.71C471.33 221.41 494.18 245.49 522.38 245.49C550.57 245.49 573.43 221.41 573.43 191.71C573.43 162.01 550.57 137.93 522.38 137.93Z" id="a36yDsEhFm"></path><path d="M564.12 343.26C564.12 343.26 594.09 326.56 612.3 350.51C612.3 350.51 623.61 364.62 637.98 382.53C662.97 413.69 697.21 456.38 697.21 456.38C707.95 460.48 793.84 493.33 804.57 497.44C804.57 497.44 880.42 503.23 867.37 532.48C867.37 532.48 790.27 517.82 790.27 517.82C782.72 516.35 744.96 509.02 677.01 495.82L607.91 416.46L571.52 371.09C567.57 356.24 565.1 346.97 564.12 343.26Z" id="f2NXRw4PUv"></path><path d="M498.56 223.98C498.56 223.98 522.38 270.58 462.82 281.34C462.37 283.73 460.1 295.68 456.01 317.19L512.17 422.94L578.54 362C586.7 337.26 591.24 323.52 592.15 320.77C592.15 320.77 525.78 288.51 549.61 223.98C539.4 223.98 508.77 223.98 498.56 223.98Z" id="bBOe5gbf5"></path><path d="M517.27 383.51L474.73 322.56L462.82 274.17L442.4 274.17L449.21 327.94C443.42 337.52 440.21 342.84 439.56 343.9C430.53 358.86 427.85 377.13 432.19 394.26C432.19 394.26 432.19 394.26 432.19 394.26L430.49 442.66L554.71 471.34C565.94 451.98 572.18 441.23 573.43 439.08C573.43 439.08 574.09 438.58 575.17 437.62C590.13 424.27 595.28 402.32 587.94 383.17C587.54 382.12 585.54 376.85 581.94 367.38L604.06 315.39L583.64 308.22L566.62 354.83L517.27 383.51Z" id="bahz9uzG9"></path><path d="M455.18 137.21C455.18 137.21 418.65 194.7 418.65 194.7C418.65 194.7 382.04 221.51 400.35 269.37C400.35 269.37 343.39 309.69 381.02 345.5C381.02 345.5 378.81 381.32 400.94 405.82C400.94 405.82 418.65 415.25 412.01 420.9C405.37 426.55 456.29 422.79 451.86 371.89C447.43 321 477.31 285.15 477.31 285.15C477.31 285.15 448.54 219.16 461.82 196.54C469.88 182.81 473.35 172.57 480.04 166.64C483.77 163.42 487.23 159.86 490.37 156.02C494.5 150.86 502.84 143.83 516.05 147.58C535.98 153.23 540.4 170.2 540.4 170.2C540.4 170.2 554.79 210.73 579.14 229.58C603.49 248.43 560.33 281.41 560.33 281.41C560.33 281.41 567.83 320.25 587.32 343.24C606.81 366.24 581.7 386.28 580.25 388.86C576.93 394.74 563.67 431.88 618.44 432.05C618.44 432.05 631.16 403.94 648.87 386.97C666.58 370.01 653.3 321 653.3 321C653.3 321 679.86 304.03 651.08 262.56C651.08 262.56 659.94 224.86 635.59 200.36C635.59 200.36 601.28 90.08 526.01 103.27C511.85 110.06 468.46 99.51 455.18 137.21Z" id="cfEM3YHpb"></path><path d="M476.41 192.86C476.41 198.54 473.67 203.15 470.3 203.15C466.93 203.15 464.2 198.54 464.2 192.86C464.2 187.18 466.93 182.57 470.3 182.57C473.67 182.57 476.41 187.18 476.41 192.86Z" id="aQZ9vLKyH"></path><path d="M266 0C266 0 266 0 266 0C266 367.2 266 571.2 266 612C266 612 266 612 266 612C107 612 18.67 612 1 612C1 612 1 612 1 612C1 244.8 1 40.8 1 0C1 0 1 0 1 0C160 0 248.33 0 266 0Z" id="b48mkkIuXX"></path><path d="M967.85 561.69C967.85 561.69 967.85 561.69 967.85 561.69C967.85 562.96 967.85 563.66 967.85 563.8C967.85 563.8 967.85 563.8 967.85 563.8C870.05 563.8 815.72 563.8 804.85 563.8C804.85 563.8 804.85 563.8 804.85 563.8C804.85 562.54 804.85 561.83 804.85 561.69C804.85 561.69 804.85 561.69 804.85 561.69C902.65 561.69 956.98 561.69 967.85 561.69Z" id="b3XggMfYNf"></path><path d="M886.35 438.18C860.94 438.18 840.35 459.87 840.35 486.63C840.35 513.39 860.94 535.09 886.35 535.09C911.75 535.09 932.35 513.39 932.35 486.63C932.35 459.87 911.75 438.18 886.35 438.18Z" id="d1Lm8IBhKO"></path><path d="M813.42 362.04C813.42 362.04 831.39 377.86 853.16 377.37C874.93 376.88 892.24 360.26 892.24 360.26C892.24 360.26 874.27 344.45 852.5 344.94C830.73 345.43 821.24 358.62 813.42 362.04Z" id="btH7kQKfu"></path><path d="M886.35 261.82C886.35 261.82 895.68 239.19 915.35 229.35C935.01 219.51 957.56 226.19 957.56 226.19C957.56 226.19 948.23 248.81 928.56 258.65C908.9 268.5 894.79 261.19 886.35 261.82Z" id="cIZwjCT2J"></path><path d="M889.33 503.65C875.52 489.1 867.84 481.02 866.31 479.4C864.75 477.76 864.75 475.09 866.31 473.44C867.87 471.8 870.4 471.8 871.97 473.44C873.1 474.64 878.76 480.6 888.95 491.33C921.46 452.28 939.52 430.58 943.13 426.24C944.59 424.5 947.11 424.32 948.77 425.85C950.43 427.39 950.6 430.05 949.14 431.8C941.17 441.38 921.23 465.33 889.33 503.65Z" id="a6RFBfn65"></path><path d="M886.04 263.07C886.04 263.07 902.28 282.91 924.04 285.23C945.81 287.55 964.86 271.47 964.86 271.47C964.86 271.47 948.62 251.63 926.86 249.31C905.09 246.99 894.2 260.32 886.04 263.07Z" id="aZ7wpxmxr"></path><path d="M812.62 331.7C812.62 331.7 795.61 314.75 793.53 291.92C791.45 269.09 805.09 249.04 805.09 249.04C805.09 249.04 822.11 265.99 824.18 288.82C826.26 311.65 814.93 323.13 812.62 331.7Z" id="a4tPJfWeuV"></path><path d="M790.01 412.79C790.01 412.79 767.66 405.41 756.29 385.85C744.92 366.3 748.83 341.97 748.83 341.97C748.83 341.97 771.18 349.35 782.55 368.91C793.92 388.46 788.52 404.01 790.01 412.79Z" id="hkbICUHYe"></path><path d="M805.26 606.2C809.4 597.27 811.66 586.71 811.75 575.87C811.72 560.01 806.48 545.34 801.4 531.15C800.46 528.51 799.52 525.89 798.62 523.27C794.83 512.57 791.81 501.31 789.61 489.67C781.74 446.24 789.49 395 810.33 352.61C826.87 318.97 851.52 289.56 885.68 262.7C885.75 262.88 886.28 264.37 886.35 264.56C852.37 291.27 827.88 320.48 811.48 353.85C790.89 395.73 783.22 446.31 790.98 489.12C793.16 500.62 796.14 511.74 799.88 522.31C800.78 524.92 801.72 527.54 802.66 530.16C807.81 544.57 813.14 559.48 813.17 575.86C813.08 587.13 810.73 598.1 806.43 607.38C806.43 607.38 805.37 606.31 805.26 606.2Z" id="c1QqvzLhK"></path><path d="M976.56 223.81C966.07 223.81 957.56 232.77 957.56 243.83C957.56 254.88 966.07 263.84 976.56 263.84C987.05 263.84 995.56 254.88 995.56 243.83C995.56 232.77 987.05 223.81 976.56 223.81Z" id="b8j4E31E"></path><path d="M238 435.04C238 435.04 238 435.04 238 435.04C238 460.95 238 475.34 238 478.22C238 478.22 238 478.22 238 478.22C103.3 478.22 28.47 478.22 13.5 478.22C13.5 478.22 13.5 478.22 13.5 478.22C13.5 452.31 13.5 437.92 13.5 435.04C13.5 435.04 13.5 435.04 13.5 435.04C148.2 435.04 223.03 435.04 238 435.04Z" id="f2rzTKY3fc"></path><path d="M254.5 479.28L12.5 479.28L12.5 421.34L254.5 421.34L254.5 479.28ZM14.5 477.17L252.5 477.17L252.5 423.45L14.5 423.45L14.5 477.17Z" id="b5dzHlL9b7"></path><path d="M134.2 166.67C134.2 166.67 123.95 144.49 129.63 122.35C135.32 100.21 154.79 86.5 154.79 86.5C154.79 86.5 165.04 108.68 159.36 130.82C153.67 152.96 139.23 159.5 134.2 166.67Z" id="e54xdUYyTn"></path><path d="M132.8 166.67C132.8 166.67 143.05 144.49 137.37 122.35C131.68 100.21 112.21 86.5 112.21 86.5C112.21 86.5 101.96 108.68 107.64 130.82C113.33 152.96 127.77 159.5 132.8 166.67Z" id="b1cZ2UXM6"></path><path d="M133.5 166.65C133.5 166.65 110.11 165.3 94.51 149.31C78.91 133.31 77.01 108.72 77.01 108.72C77.01 108.72 100.39 110.07 115.99 126.06C131.59 142.06 130 158.53 133.5 166.65Z" id="gnhcGkmk8"></path><path d="M133.5 166.65C133.5 166.65 156.89 165.3 172.49 149.31C188.09 133.31 189.99 108.72 189.99 108.72C189.99 108.72 166.61 110.07 151.01 126.06C135.41 142.06 137 158.53 133.5 166.65Z" id="a1YeuJcmiN"></path><path d="M217.5 47.93C217.5 47.93 217.5 47.93 217.5 47.93C217.5 54.25 217.5 57.76 217.5 58.46C217.5 58.46 217.5 58.46 217.5 58.46C116.7 58.46 60.7 58.46 49.5 58.46C49.5 58.46 49.5 58.46 49.5 58.46C49.5 52.14 49.5 48.63 49.5 47.93C49.5 47.93 49.5 47.93 49.5 47.93C150.3 47.93 206.3 47.93 217.5 47.93Z" id="e7Mawwaun5"></path><path d="M217.5 205.93C217.5 205.93 217.5 205.93 217.5 205.93C217.5 212.25 217.5 215.76 217.5 216.46C217.5 216.46 217.5 216.46 217.5 216.46C116.7 216.46 60.7 216.46 49.5 216.46C49.5 216.46 49.5 216.46 49.5 216.46C49.5 210.14 49.5 206.63 49.5 205.93C49.5 205.93 49.5 205.93 49.5 205.93C150.3 205.93 206.3 205.93 217.5 205.93Z" id="amvX1RUln"></path><path d="M217.5 229.1C217.5 229.1 217.5 229.1 217.5 229.1C217.5 235.43 217.5 238.94 217.5 239.64C217.5 239.64 217.5 239.64 217.5 239.64C116.7 239.64 60.7 239.64 49.5 239.64C49.5 239.64 49.5 239.64 49.5 239.64C49.5 233.32 49.5 229.81 49.5 229.1C49.5 229.1 49.5 229.1 49.5 229.1C150.3 229.1 206.3 229.1 217.5 229.1Z" id="d9wN5GUkb"></path><path d="M217.5 252.28C217.5 252.28 217.5 252.28 217.5 252.28C217.5 258.6 217.5 262.11 217.5 262.81C217.5 262.81 217.5 262.81 217.5 262.81C116.7 262.81 60.7 262.81 49.5 262.81C49.5 262.81 49.5 262.81 49.5 262.81C49.5 256.49 49.5 252.98 49.5 252.28C49.5 252.28 49.5 252.28 49.5 252.28C150.3 252.28 206.3 252.28 217.5 252.28Z" id="c6lp95LIs"></path><path d="M950.5 47.93C950.5 47.93 950.5 47.93 950.5 47.93C950.5 54.25 950.5 57.76 950.5 58.46C950.5 58.46 950.5 58.46 950.5 58.46C849.7 58.46 793.7 58.46 782.5 58.46C782.5 58.46 782.5 58.46 782.5 58.46C782.5 52.14 782.5 48.63 782.5 47.93C782.5 47.93 782.5 47.93 782.5 47.93C883.3 47.93 939.3 47.93 950.5 47.93Z" id="b5TpZIaIDh"></path><path d="M950.5 71.1C950.5 71.1 950.5 71.1 950.5 71.1C950.5 77.42 950.5 80.93 950.5 81.64C950.5 81.64 950.5 81.64 950.5 81.64C849.7 81.64 793.7 81.64 782.5 81.64C782.5 81.64 782.5 81.64 782.5 81.64C782.5 75.31 782.5 71.8 782.5 71.1C782.5 71.1 782.5 71.1 782.5 71.1C883.3 71.1 939.3 71.1 950.5 71.1Z" id="aPmOF6SB9"></path><path d="M950.5 94.28C950.5 94.28 950.5 94.28 950.5 94.28C950.5 100.6 950.5 104.11 950.5 104.81C950.5 104.81 950.5 104.81 950.5 104.81C849.7 104.81 793.7 104.81 782.5 104.81C782.5 104.81 782.5 104.81 782.5 104.81C782.5 98.49 782.5 94.98 782.5 94.28C782.5 94.28 782.5 94.28 782.5 94.28C883.3 94.28 939.3 94.28 950.5 94.28Z" id="dno700x72"></path></defs><g><g><g><use xlink:href="#aBr56E6Oc" opacity="1" fill="#d0cde1" fill-opacity="1"></use><g><use xlink:href="#aBr56E6Oc" opacity="1" fill-opacity="0" stroke="#000000" stroke-width="1" stroke-opacity="0"></use></g></g><g><use xlink:href="#aINjJCdQ4" opacity="1" fill="#3f3d56" fill-opacity="1"></use><g><use xlink:href="#aINjJCdQ4" opacity="1" fill-opacity="0" stroke="#000000" stroke-width="1" stroke-opacity="0"></use></g></g><g><use xlink:href="#aanTRgmtP" opacity="1" fill="#2f2e41" fill-opacity="1"></use><g><use xlink:href="#aanTRgmtP" opacity="1" fill-opacity="0" stroke="#000000" stroke-width="1" stroke-opacity="0"></use></g></g><g><use xlink:href="#aaZc4QUHf" opacity="1" fill="#ffb8b8" fill-opacity="1"></use><g><use xlink:href="#aaZc4QUHf" opacity="1" fill-opacity="0" stroke="#000000" stroke-width="1" stroke-opacity="0"></use></g></g><g><use xlink:href="#h2Za41IC6i" opacity="1" fill="#2f2e41" fill-opacity="1"></use><g><use xlink:href="#h2Za41IC6i" opacity="1" fill-opacity="0" stroke="#000000" stroke-width="1" stroke-opacity="0"></use></g></g><g><use xlink:href="#a36yDsEhFm" opacity="1" fill="#ffb8b8" fill-opacity="1"></use><g><use xlink:href="#a36yDsEhFm" opacity="1" fill-opacity="0" stroke="#000000" stroke-width="1" stroke-opacity="0"></use></g></g><g><use xlink:href="#f2NXRw4PUv" opacity="1" fill="#ffb8b8" fill-opacity="1"></use><g><use xlink:href="#f2NXRw4PUv" opacity="1" fill-opacity="0" stroke="#000000" stroke-width="1" stroke-opacity="0"></use></g></g><g><use xlink:href="#bBOe5gbf5" opacity="1" fill="#ffb8b8" fill-opacity="1"></use><g><use xlink:href="#bBOe5gbf5" opacity="1" fill-opacity="0" stroke="#000000" stroke-width="1" stroke-opacity="0"></use></g></g><g><use xlink:href="#bahz9uzG9" opacity="1" fill="#007bff" fill-opacity="1"></use><g><use xlink:href="#bahz9uzG9" opacity="1" fill-opacity="0" stroke="#000000" stroke-width="1" stroke-opacity="0"></use></g></g><g><use xlink:href="#cfEM3YHpb" opacity="1" fill="#2f2e41" fill-opacity="1"></use><g><use xlink:href="#cfEM3YHpb" opacity="1" fill-opacity="0" stroke="#000000" stroke-width="1" stroke-opacity="0"></use></g></g><g><use xlink:href="#aQZ9vLKyH" opacity="1" fill="#ffb8b8" fill-opacity="1"></use><g><use xlink:href="#aQZ9vLKyH" opacity="1" fill-opacity="0" stroke="#000000" stroke-width="1" stroke-opacity="0"></use></g></g><g><use xlink:href="#b48mkkIuXX" opacity="1" fill="#d0cde1" fill-opacity="1"></use><g><use xlink:href="#b48mkkIuXX" opacity="1" fill-opacity="0" stroke="#000000" stroke-width="1" stroke-opacity="0"></use></g></g><g><use xlink:href="#b3XggMfYNf" opacity="1" fill="#3f3d56" fill-opacity="1"></use><g><use xlink:href="#b3XggMfYNf" opacity="1" fill-opacity="0" stroke="#000000" stroke-width="1" stroke-opacity="0"></use></g></g><g><use xlink:href="#d1Lm8IBhKO" opacity="1" fill="#3f3d56" fill-opacity="1"></use><g><use xlink:href="#d1Lm8IBhKO" opacity="1" fill-opacity="0" stroke="#000000" stroke-width="1" stroke-opacity="0"></use></g></g><g><use xlink:href="#btH7kQKfu" opacity="1" fill="#007bff" fill-opacity="1"></use><g><use xlink:href="#btH7kQKfu" opacity="1" fill-opacity="0" stroke="#000000" stroke-width="1" stroke-opacity="0"></use></g></g><g><use xlink:href="#cIZwjCT2J" opacity="1" fill="#007bff" fill-opacity="1"></use><g><use xlink:href="#cIZwjCT2J" opacity="1" fill-opacity="0" stroke="#000000" stroke-width="1" stroke-opacity="0"></use></g></g><g><use xlink:href="#a6RFBfn65" opacity="1" fill="#007bff" fill-opacity="1"></use><g><use xlink:href="#a6RFBfn65" opacity="1" fill-opacity="0" stroke="#000000" stroke-width="1" stroke-opacity="0"></use></g></g><g><use xlink:href="#aZ7wpxmxr" opacity="1" fill="#3f3d56" fill-opacity="1"></use><g><use xlink:href="#aZ7wpxmxr" opacity="1" fill-opacity="0" stroke="#000000" stroke-width="1" stroke-opacity="0"></use></g></g><g><use xlink:href="#a4tPJfWeuV" opacity="1" fill="#3f3d56" fill-opacity="1"></use><g><use xlink:href="#a4tPJfWeuV" opacity="1" fill-opacity="0" stroke="#000000" stroke-width="1" stroke-opacity="0"></use></g></g><g><use xlink:href="#hkbICUHYe" opacity="1" fill="#3f3d56" fill-opacity="1"></use><g><use xlink:href="#hkbICUHYe" opacity="1" fill-opacity="0" stroke="#000000" stroke-width="1" stroke-opacity="0"></use></g></g><g><use xlink:href="#c1QqvzLhK" opacity="1" fill="#3f3d56" fill-opacity="1"></use><g><use xlink:href="#c1QqvzLhK" opacity="1" fill-opacity="0" stroke="#000000" stroke-width="1" stroke-opacity="0"></use></g></g><g><use xlink:href="#b8j4E31E" opacity="1" fill="#3f3d56" fill-opacity="1"></use><g><use xlink:href="#b8j4E31E" opacity="1" fill-opacity="0" stroke="#000000" stroke-width="1" stroke-opacity="0"></use></g></g><g><use xlink:href="#f2rzTKY3fc" opacity="1" fill="#007bff" fill-opacity="1"></use><g><use xlink:href="#f2rzTKY3fc" opacity="1" fill-opacity="0" stroke="#000000" stroke-width="1" stroke-opacity="0"></use></g></g><g><use xlink:href="#b5dzHlL9b7" opacity="1" fill="#3f3d56" fill-opacity="1"></use><g><use xlink:href="#b5dzHlL9b7" opacity="1" fill-opacity="0" stroke="#000000" stroke-width="1" stroke-opacity="0"></use></g></g><g><use xlink:href="#e54xdUYyTn" opacity="1" fill="#007bff" fill-opacity="1"></use><g><use xlink:href="#e54xdUYyTn" opacity="1" fill-opacity="0" stroke="#000000" stroke-width="1" stroke-opacity="0"></use></g></g><g><use xlink:href="#b1cZ2UXM6" opacity="1" fill="#007bff" fill-opacity="1"></use><g><use xlink:href="#b1cZ2UXM6" opacity="1" fill-opacity="0" stroke="#000000" stroke-width="1" stroke-opacity="0"></use></g></g><g><use xlink:href="#gnhcGkmk8" opacity="1" fill="#3f3d56" fill-opacity="1"></use><g><use xlink:href="#gnhcGkmk8" opacity="1" fill-opacity="0" stroke="#000000" stroke-width="1" stroke-opacity="0"></use></g></g><g><use xlink:href="#a1YeuJcmiN" opacity="1" fill="#3f3d56" fill-opacity="1"></use><g><use xlink:href="#a1YeuJcmiN" opacity="1" fill-opacity="0" stroke="#000000" stroke-width="1" stroke-opacity="0"></use></g></g><g><use xlink:href="#e7Mawwaun5" opacity="1" fill="#3f3d56" fill-opacity="1"></use><g><use xlink:href="#e7Mawwaun5" opacity="1" fill-opacity="0" stroke="#000000" stroke-width="1" stroke-opacity="0"></use></g></g><g><use xlink:href="#amvX1RUln" opacity="1" fill="#3f3d56" fill-opacity="1"></use><g><use xlink:href="#amvX1RUln" opacity="1" fill-opacity="0" stroke="#000000" stroke-width="1" stroke-opacity="0"></use></g></g><g><use xlink:href="#d9wN5GUkb" opacity="1" fill="#3f3d56" fill-opacity="1"></use><g><use xlink:href="#d9wN5GUkb" opacity="1" fill-opacity="0" stroke="#000000" stroke-width="1" stroke-opacity="0"></use></g></g><g><use xlink:href="#c6lp95LIs" opacity="1" fill="#3f3d56" fill-opacity="1"></use><g><use xlink:href="#c6lp95LIs" opacity="1" fill-opacity="0" stroke="#000000" stroke-width="1" stroke-opacity="0"></use></g></g><g><use xlink:href="#b5TpZIaIDh" opacity="1" fill="#3f3d56" fill-opacity="1"></use><g><use xlink:href="#b5TpZIaIDh" opacity="1" fill-opacity="0" stroke="#000000" stroke-width="1" stroke-opacity="0"></use></g></g><g><use xlink:href="#aPmOF6SB9" opacity="1" fill="#3f3d56" fill-opacity="1"></use><g><use xlink:href="#aPmOF6SB9" opacity="1" fill-opacity="0" stroke="#000000" stroke-width="1" stroke-opacity="0"></use></g></g><g><use xlink:href="#dno700x72" opacity="1" fill="#3f3d56" fill-opacity="1"></use><g><use xlink:href="#dno700x72" opacity="1" fill-opacity="0" stroke="#000000" stroke-width="1" stroke-opacity="0"></use></g></g></g></g></svg>